<?xml version="1.0" encoding="UTF-8" standalone="no"?>
<!-- Created with Inkscape (http://www.inkscape.org/) -->

<svg
   xmlns:dc="http://purl.org/dc/elements/1.1/"
   xmlns:cc="http://creativecommons.org/ns#"
   xmlns:rdf="http://www.w3.org/1999/02/22-rdf-syntax-ns#"
   xmlns:svg="http://www.w3.org/2000/svg"
   xmlns="http://www.w3.org/2000/svg"
   xmlns:xlink="http://www.w3.org/1999/xlink"
   xmlns:sodipodi="http://sodipodi.sourceforge.net/DTD/sodipodi-0.dtd"
   xmlns:inkscape="http://www.inkscape.org/namespaces/inkscape"
   width="611.42859"
   height="611.42859"
   id="svg2996"
   version="1.1"
   inkscape:version="0.48.4 r9939"
   sodipodi:docname="charon_logo.svg"
   inkscape:export-filename="/home/hvogel/Development/Web/charon/app/assets/images/charon_logo.png"
   inkscape:export-xdpi="73.598129"
   inkscape:export-ydpi="73.598129">
  <defs
     id="defs2998">
    <linearGradient
       inkscape:collect="always"
       xlink:href="#linearGradient3275"
       id="linearGradient4495"
       gradientUnits="userSpaceOnUse"
       x1="251.37376"
       y1="174.61134"
       x2="267.28687"
       y2="400.85428"
       gradientTransform="translate(106.75308,559.05448)" />
    <linearGradient
       id="linearGradient3275">
      <stop
         id="stop3277"
         offset="0"
         style="stop-color:#ffffff;stop-opacity:1;" />
      <stop
         id="stop3279"
         offset="1"
         style="stop-color:#c3c3c3;stop-opacity:1" />
    </linearGradient>
    <linearGradient
       inkscape:collect="always"
       xlink:href="#linearGradient3275"
       id="linearGradient4498"
       gradientUnits="userSpaceOnUse"
       x1="251.37376"
       y1="174.61134"
       x2="267.28687"
       y2="400.85428"
       gradientTransform="translate(106.75308,559.05448)" />
    <linearGradient
       id="linearGradient4518">
      <stop
         id="stop4520"
         offset="0"
         style="stop-color:#ffffff;stop-opacity:1;" />
      <stop
         id="stop4522"
         offset="1"
         style="stop-color:#c3c3c3;stop-opacity:1" />
    </linearGradient>
    <linearGradient
       inkscape:collect="always"
       xlink:href="#linearGradient3275"
       id="linearGradient4501"
       gradientUnits="userSpaceOnUse"
       x1="251.37376"
       y1="174.61134"
       x2="267.28687"
       y2="400.85428" />
    <linearGradient
       id="linearGradient4525">
      <stop
         id="stop4527"
         offset="0"
         style="stop-color:#ffffff;stop-opacity:1;" />
      <stop
         id="stop4529"
         offset="1"
         style="stop-color:#c3c3c3;stop-opacity:1" />
    </linearGradient>
    <linearGradient
       y2="400.85428"
       x2="267.28687"
       y1="174.61134"
       x1="251.37376"
       gradientUnits="userSpaceOnUse"
       id="linearGradient4534"
       xlink:href="#linearGradient3275"
       inkscape:collect="always" />
    <linearGradient
       inkscape:collect="always"
       xlink:href="#linearGradient3275"
       id="linearGradient4577"
       gradientUnits="userSpaceOnUse"
       gradientTransform="translate(106.75308,559.05448)"
       x1="251.37376"
       y1="174.61134"
       x2="267.28687"
       y2="400.85428" />
    <linearGradient
       inkscape:collect="always"
       xlink:href="#linearGradient3275"
       id="linearGradient4579"
       gradientUnits="userSpaceOnUse"
       gradientTransform="translate(106.75308,559.05448)"
       x1="251.37376"
       y1="174.61134"
       x2="267.28687"
       y2="400.85428" />
  </defs>
  <sodipodi:namedview
     id="base"
     pagecolor="#ffffff"
     bordercolor="#666666"
     borderopacity="1.0"
     inkscape:pageopacity="0.0"
     inkscape:pageshadow="2"
     inkscape:zoom="1.4"
     inkscape:cx="313.29403"
     inkscape:cy="281.3409"
     inkscape:document-units="px"
     inkscape:current-layer="layer1"
     showgrid="false"
     fit-margin-top="10"
     fit-margin-left="10"
     fit-margin-right="10"
     fit-margin-bottom="10"
     inkscape:window-width="1680"
     inkscape:window-height="991"
     inkscape:window-x="0"
     inkscape:window-y="27"
     inkscape:window-maximized="1"
     showguides="true"
     inkscape:guide-bbox="true">
    <sodipodi:guide
       orientation="1,0"
       position="-358.60415,374.76659"
       id="guide4141" />
  </sodipodi:namedview>
  <metadata
     id="metadata3001">
    <rdf:RDF>
      <cc:Work
         rdf:about="">
        <dc:format>image/svg+xml</dc:format>
        <dc:type
           rdf:resource="http://purl.org/dc/dcmitype/StillImage" />
        <dc:title></dc:title>
      </cc:Work>
    </rdf:RDF>
  </metadata>
  <g
     inkscape:label="Layer 1"
     inkscape:groupmode="layer"
     id="layer1"
     transform="translate(-445,-194.50499)">
    <text
       xml:space="preserve"
       style="font-size:12px;font-style:normal;font-variant:normal;font-weight:normal;font-stretch:normal;text-align:start;line-height:100%;letter-spacing:0px;word-spacing:0px;writing-mode:lr-tb;text-anchor:start;fill:#000000;fill-opacity:1;stroke:none;font-family:Courier;-inkscape-font-specification:Courier"
       x="436.42856"
       y="405.93362"
       id="text3030"
       sodipodi:linespacing="100%"
       transform="translate(0,-2.988066e-5)"><tspan
         sodipodi:role="line"
         id="tspan3032"
         x="436.42856"
         y="405.93362" /></text>
    <path
       id="path3644-1"
       d="M 971.0838,454.33922 C 995.80361,575.42679 917.68196,693.62697 796.59442,718.34669 675.50674,743.0664 557.30662,664.94481 532.58684,543.85721 507.86722,422.76964 585.98872,304.56946 707.0764,279.84974 828.16394,255.13003 946.36407,333.25163 971.0838,454.33922 z"
       style="color:#000000;fill:none;stroke:#166870;stroke-width:15.82296848;stroke-linecap:butt;stroke-linejoin:miter;stroke-miterlimit:4;stroke-opacity:1;stroke-dashoffset:5.00000053;marker:none;visibility:visible;display:inline;overflow:visible;enable-background:accumulate"
       inkscape:connector-curvature="0" />
    <path
       id="path3648-8"
       d="M 1022.2123,444.79365 C 1052.8231,594.73783 956.08411,741.10661 806.13995,771.71732 656.19564,802.32804 509.82691,705.58907 479.21628,555.64491 448.60549,405.70064 545.34445,259.33197 695.28861,228.72125 c 149.94418,-30.61073 296.31287,66.12816 326.92369,216.0724 z"
       style="color:#000000;fill:none;stroke:#1baa8f;stroke-width:37.92598343;stroke-linecap:butt;stroke-linejoin:miter;stroke-miterlimit:4;stroke-opacity:1;stroke-dasharray:37.92598396, 37.92598396;stroke-dashoffset:0;marker:none;visibility:visible;display:inline;overflow:visible;enable-background:accumulate"
       inkscape:connector-curvature="0" />
    <path
       id="path4850-2"
       d="m 686.6244,427.56374 c -39.50718,36.01496 -42.33848,97.23787 -6.32353,136.74528 36.01494,39.50741 97.2378,42.33861 136.74538,6.32367 39.5072,-36.01495 42.3385,-97.23789 6.32374,-136.74528 C 787.35487,394.38 726.13198,391.54881 686.6244,427.56374 z"
       style="fill:#ff530d;stroke:#ff530d;stroke-width:190.80966187;stroke-miterlimit:4;stroke-opacity:1"
       inkscape:connector-curvature="0" />
    <g
       id="g3117"
       transform="translate(7.1428572,-0.71428572)">
      <path
         inkscape:connector-curvature="0"
         id="path2830-6"
         d="m 877.19254,505.70503 c -1.61061,33.92582 -6.46094,56.84354 -13.42813,63.44771 -1.99727,1.89321 -2.5388,2.09748 -4.65214,1.75455 -4.17216,-0.67706 -6.19863,-3.00696 -9.69518,-11.14666 -1.85942,-4.32836 -21.74825,-17.74214 -37.59887,-25.35805 -28.7955,-13.83561 -53.4372,-18.73086 -91.40996,-18.15919 l -13.67268,0.20583 -1.17968,2.52805 c -0.92818,1.98924 -1.74237,2.72259 -3.82018,3.44089 -1.58786,0.54894 -2.90842,1.50085 -3.3126,2.38778 -0.36961,0.81121 -1.17225,1.65931 -1.7835,1.88465 -0.61137,0.22536 -2.0503,1.11541 -3.19774,1.97789 -1.77632,1.33517 -2.05797,1.90287 -1.89604,3.82126 0.17678,2.09457 0.64605,2.55453 6.66839,6.53614 4.37096,2.88992 6.47809,4.66655 6.47809,5.4622 0,1.22599 -1.30924,3.16384 -4.86274,7.19758 -1.14913,1.30453 -2.08937,2.87254 -2.08937,3.48449 0,0.61195 1.00655,2.60726 2.23671,4.43404 3.6142,5.36682 9.09622,16.14395 11.73904,23.07791 2.47676,6.49836 3.79221,8.21786 6.88057,8.99388 2.15373,0.5412 3.79208,2.12703 3.79208,3.6705 0,3.93627 -11.32039,16.3519 -18.96746,20.80248 -5.07236,2.95215 -8.12325,3.16592 -10.0592,0.70478 -0.72038,-0.91589 -1.30986,-2.15291 -1.30986,-2.74894 0,-0.59602 -0.87525,-2.3352 -1.94495,-3.86483 -2.62676,-3.75603 -13.32909,-20.11165 -14.3871,-21.98678 -4.10062,-7.26753 -8.85058,-17.91766 -12.57124,-28.18655 -0.87989,-2.42848 -2.01199,-5.0445 -2.51581,-5.81342 -1.44442,-2.20445 -5.89398,-3.60486 -9.94204,-3.12908 -3.18582,0.37444 -4.26925,0.0136 -4.48569,-1.49434 -0.0243,-0.17381 -0.23835,-1.16921 -0.47426,-2.21205 -0.35927,-1.5883 -2.34377,-21.12829 -2.34377,-23.0777 0,-0.91814 -6.67702,-0.76823 -7.45081,0.16724 -0.35941,0.4345 -0.74983,1.64323 -0.86748,2.68606 l -0.21389,1.89603 -8.12801,0.1774 c -8.33532,0.18194 -9.8739,-0.17709 -9.89398,-2.30881 -0.0219,-2.27663 -1.11775,-2.85272 -6.10227,-3.20639 -4.70542,-0.33389 -4.97832,-0.4379 -5.83083,-2.2218 -1.55039,-3.24439 -2.52968,-19.27631 -2.54951,-41.73726 -0.0194,-22.11319 0.45794,-28.878 2.28147,-32.32561 l 1.05205,-1.98904 12.05757,-0.37564 c 6.63164,-0.20661 28.27476,-0.55277 48.09583,-0.76925 l 36.03851,-0.39358 2.04021,1.90583 c 1.12213,1.04822 2.04021,2.48297 2.04021,3.18836 0,1.25457 0.26523,1.27604 12.16623,0.98531 35.66827,-0.87139 51.32484,-3.26859 72.50029,-11.10066 16.70216,-6.17757 31.05337,-13.87618 47.191,-25.31531 8.67709,-6.15068 9.31571,-6.82683 12.5115,-13.24571 2.79357,-5.61097 4.51928,-7.29736 8.05428,-7.87101 2.04521,-0.3319 2.59574,-0.0908 5.13418,2.24906 3.07935,2.83852 4.48059,5.76027 6.99956,14.59561 5.51,19.32636 8.37461,60.66033 6.6792,96.3741 z"
         style="fill:none;stroke:#166870;stroke-width:10.67311954;stroke-miterlimit:4;stroke-opacity:1;stroke-dasharray:none" />
      <rect
         y="381.11703"
         x="600.46967"
         height="244.04364"
         width="261.19269"
         id="rect4624"
         style="fill:#ff530d;fill-opacity:1;stroke:none" />
      <path
         inkscape:connector-curvature="0"
         id="path2830-6-1"
         d="m 851.17005,506.2979 c -1.47386,31.04752 -5.91272,52.02088 -12.28873,58.06477 -1.82792,1.73258 -2.32358,1.91951 -4.25746,1.60567 -3.81823,-0.61961 -5.67278,-2.75183 -8.87272,-10.20096 -1.70162,-3.96114 -19.90318,-16.23689 -34.40903,-23.20666 -26.35234,-12.6618 -48.90346,-17.14171 -83.65462,-16.61855 l -12.5126,0.18835 -1.07966,2.31358 c -0.84947,1.82048 -1.59455,2.49161 -3.49606,3.14898 -1.45319,0.50236 -2.66169,1.37351 -3.03155,2.18519 -0.33823,0.74238 -1.07274,1.51854 -1.63215,1.72476 -0.55954,0.20623 -1.87645,1.02076 -2.92655,1.81009 -1.62558,1.22188 -1.88339,1.7414 -1.73508,3.49705 0.16182,1.91686 0.59118,2.33779 6.10252,5.98161 4.00025,2.64473 5.92853,4.27064 5.92853,4.99879 0,1.12197 -1.19817,2.89541 -4.45017,6.58692 -1.05168,1.19384 -1.9121,2.62884 -1.9121,3.18887 0,0.56003 0.92114,2.38606 2.04691,4.05785 3.30761,4.91149 8.32449,14.77429 10.74308,21.11997 2.26676,5.94702 3.47053,7.52065 6.29682,8.23084 1.97099,0.49526 3.47039,1.94658 3.47039,3.35908 0,3.60232 -10.35996,14.96459 -17.35818,19.0376 -4.64204,2.70168 -7.43414,2.89731 -9.20584,0.64498 -0.65931,-0.83819 -1.19878,-1.97027 -1.19878,-2.51572 0,-0.54546 -0.80092,-2.13708 -1.77985,-3.53695 -2.40387,-3.43736 -12.1982,-18.40535 -13.16655,-20.12139 -3.75266,-6.65095 -8.09965,-16.39752 -11.50471,-25.79519 -0.80519,-2.22245 -1.8413,-4.61653 -2.30229,-5.32021 -1.3219,-2.01743 -5.39393,-3.29903 -9.09854,-2.86361 -2.91559,0.34267 -3.90705,0.0125 -4.10512,-1.36756 -0.0231,-0.15906 -0.21814,-1.07002 -0.4341,-2.02436 -0.32874,-1.45355 -2.14497,-19.33576 -2.14497,-21.11978 0,-0.84026 -6.11043,-0.70305 -6.81864,0.15305 -0.32886,0.39764 -0.68607,1.50381 -0.79374,2.45816 l -0.19577,1.73517 -7.43853,0.16236 c -7.62808,0.16651 -9.03611,-0.16208 -9.05448,-2.11294 -0.0195,-2.08347 -1.02297,-2.61069 -5.58459,-2.93436 -4.30624,-0.30556 -4.55602,-0.40075 -5.33614,-2.03329 -1.41886,-2.96915 -2.31505,-17.6409 -2.33319,-38.19625 -0.0182,-20.2371 0.41915,-26.42797 2.08792,-29.58307 l 0.96285,-1.8203 11.03448,-0.34378 c 6.06894,-0.18907 25.87589,-0.50587 44.01541,-0.70399 l 32.98093,-0.36017 1.86708,1.74414 c 1.02698,0.95928 1.8672,2.27232 1.8672,2.91786 0,1.14811 0.24272,1.16777 11.13401,0.9017 32.6422,-0.79745 46.97042,-2.99129 66.34923,-10.15886 15.28525,-5.65348 28.41895,-12.69894 43.18735,-23.16755 7.94088,-5.62886 8.52536,-6.24764 11.45009,-12.12194 2.55656,-5.13494 4.13578,-6.67824 7.37088,-7.20322 1.8717,-0.30375 2.37553,-0.0831 4.69862,2.05823 2.81813,2.59771 4.10038,5.27157 6.4057,13.35732 5.04257,17.6867 7.66409,55.51388 6.11249,88.19766 z"
         style="fill:none;stroke:#166870;stroke-width:9.76760674;stroke-miterlimit:4;stroke-opacity:1;stroke-dasharray:none" />
      <rect
         y="381.28983"
         x="594.39178"
         height="234.26021"
         width="242.56567"
         id="rect4624-2"
         style="fill:#ff530d;fill-opacity:1;stroke:none" />
      <g
         transform="matrix(1.353499,0,0,1.353499,-201.79675,-251.74641)"
         id="g4630">
        <path
           style="fill:none;stroke:#166870;stroke-width:6.26697397;stroke-miterlimit:4;stroke-opacity:1;stroke-dasharray:none"
           d="m 759.67471,559.6502 c -0.94569,19.92034 -3.79365,33.37702 -7.88461,37.25482 -1.17273,1.11164 -1.49076,1.23158 -2.73161,1.03022 -2.44978,-0.39755 -3.6397,-1.7656 -5.6928,-6.54502 -1.09177,-2.5415 -12.76999,-10.41772 -22.07707,-14.88958 -16.9079,-8.12391 -31.37686,-10.99826 -53.67351,-10.6626 l -8.02819,0.12086 -0.69266,1.4844 c -0.54505,1.16804 -1.02313,1.59864 -2.24315,2.02041 -0.93237,0.32232 -1.70778,0.88126 -1.94506,1.40204 -0.21703,0.47632 -0.68829,0.9743 -1.04723,1.10662 -0.35895,0.13232 -1.20389,0.65493 -1.87763,1.16136 -1.04301,0.78398 -1.2084,1.11731 -1.1133,2.24374 0.10383,1.22988 0.37937,1.49995 3.91547,3.83785 2.56655,1.69688 3.80377,2.74008 3.80377,3.20726 0,0.71987 -0.76873,1.85772 -2.85523,4.22623 -0.67478,0.76598 -1.22687,1.68668 -1.22687,2.046 0,0.35932 0.59101,1.53092 1.31337,2.60355 2.12217,3.15125 5.34106,9.4793 6.89285,13.55074 1.4543,3.81566 2.2267,4.82531 4.04009,5.28097 1.2646,0.31777 2.2266,1.24894 2.2266,2.15522 0,2.31127 -6.64705,9.6014 -11.13718,12.21467 -2.97837,1.73342 -4.76978,1.85894 -5.90649,0.41383 -0.42303,-0.53779 -0.76914,-1.26414 -0.76914,-1.61411 0,-0.34997 -0.51392,-1.37117 -1.14203,-2.26933 -1.54234,-2.20544 -7.82646,-11.80903 -8.44769,-12.91005 -2.40777,-4.2673 -5.19683,-10.52078 -7.38153,-16.5504 -0.51665,-1.42594 -1.1814,-2.962 -1.47722,-3.41349 -0.84812,-1.29439 -3.46074,-2.11668 -5.83766,-1.83731 -1.87066,0.21986 -2.50683,0.008 -2.63391,-0.87744 -0.0146,-0.10205 -0.13995,-0.68653 -0.27847,-1.29885 -0.21096,-0.93261 -1.37622,-12.40598 -1.37622,-13.55062 0,-0.53911 -3.92054,-0.45108 -4.37492,0.0982 -0.21103,0.25513 -0.44023,0.96486 -0.50931,1.57718 l -0.12561,1.1133 -4.77255,0.10417 c -4.89427,0.10683 -5.79772,-0.10399 -5.80949,-1.35568 -0.0126,-1.33678 -0.65635,-1.67504 -3.58312,-1.88271 -2.76287,-0.19605 -2.92313,-0.25712 -3.42368,-1.30458 -0.91037,-1.90502 -1.4854,-11.31854 -1.49701,-24.50702 -0.0115,-12.98428 0.26891,-16.95639 1.33963,-18.98073 l 0.61775,-1.16792 7.07983,-0.22057 c 3.89392,-0.12131 16.60221,-0.32457 28.24066,-0.45168 l 21.16084,-0.2311 1.19795,1.11906 c 0.65889,0.61548 1.19796,1.45793 1.19796,1.87212 0,0.73664 0.15573,0.74925 7.14368,0.57854 20.94349,-0.51165 30.13659,-1.91923 42.57024,-6.51801 9.80707,-3.62731 18.23375,-8.14773 27.70934,-14.86448 5.09492,-3.61152 5.46992,-4.00854 7.34643,-7.77753 1.64032,-3.29462 2.65357,-4.28482 4.72921,-4.62165 1.20094,-0.19489 1.52419,-0.0533 3.01466,1.32058 1.80816,1.66671 2.63089,3.38228 4.10997,8.57016 3.23534,11.34793 4.91738,35.61815 3.92185,56.58833 z"
           id="path2830"
           inkscape:connector-curvature="0" />
        <text
           xml:space="preserve"
           style="font-size:4.57994127px;font-style:normal;font-variant:normal;font-weight:normal;font-stretch:normal;text-align:start;line-height:100%;letter-spacing:0px;word-spacing:0px;writing-mode:lr-tb;text-anchor:start;fill:#e8c57a;fill-opacity:1;stroke:none;font-family:Courier;-inkscape-font-specification:Courier"
           x="605.08398"
           y="559.45123"
           id="text3011"
           sodipodi:linespacing="100%"><tspan
             sodipodi:role="line"
             id="tspan3013"
             x="605.08398"
             y="559.45123"
             style="font-size:22.89970398px;font-style:normal;font-variant:normal;font-weight:normal;font-stretch:normal;fill:#e8c57a;fill-opacity:1;stroke:none;font-family:FatFrank;-inkscape-font-specification:FatFrank"><tspan
               style="font-size:30.53293991px"
               id="tspan3814">CH</tspan><tspan
               style="font-size:34.34955597px"
               id="tspan3812">A</tspan><tspan
               style="font-size:38.16617584px"
               id="tspan3810">R</tspan><tspan
               style="font-size:41.9827919px"
               id="tspan3808">O</tspan><tspan
               style="font-size:45.79940796px"
               id="tspan3806">N</tspan></tspan></text>
      </g>
    </g>
  </g>
</svg>
